<svg width="24" height="24" viewBox="0 0 24 24" fill="none" xmlns="http://www.w3.org/2000/svg">
<g clip-path="url(#clip0_2_7260)">
<path fill-rule="evenodd" clip-rule="evenodd" d="M3.95712 8.41516L11.4786 3.81872C11.7987 3.62309 12.2014 3.62309 12.5215 3.81872L20.0429 8.41516C20.6374 8.77847 21 9.42499 21 10.1217V19.0001C21 20.1047 20.1046 21.0001 19 21.0001L5 21.0001C3.89543 21.0001 3 20.1047 3 19.0001L3.00002 10.1217C3.00002 9.42499 3.36261 8.77847 3.95712 8.41516ZM10 13.0001C9.44773 13.0001 9.00002 13.4478 9.00002 14.0001V17.0001C9.00002 17.5523 9.44773 18.0001 10 18.0001H14C14.5523 18.0001 15 17.5523 15 17.0001V14.0001C15 13.4478 14.5523 13.0001 14 13.0001H10Z" fill="var(--gray-11)"/>
</g>
<defs>
<clipPath id="clip0_2_7260">
<rect width="24" height="24" fill="var(--gray-11)"/>
</clipPath>
</defs>
</svg>
