<svg width="24" height="24" viewBox="0 0 24 24" fill="none" xmlns="http://www.w3.org/2000/svg">
<path fill-rule="evenodd" clip-rule="evenodd" d="M5 6C3.89551 6 3 6.89551 3 8V17C3 18.1045 3.89551 19 5 19H19C20.1045 19 21 18.1045 21 17V8C21 6.89551 20.1045 6 19 6H5ZM19.1602 8.14429C18.9639 7.77954 18.509 7.64307 18.1443 7.8396L12 11.1482L5.85547 7.8396C5.49072 7.64307 5.03589 7.77954 4.8396 8.14429C4.64307 8.50903 4.77954 8.96387 5.14429 9.16016L11.6443 12.6602C11.8662 12.7798 12.1335 12.7798 12.3555 12.6602L18.8555 9.16016C19.2202 8.96387 19.3567 8.50903 19.1602 8.14429Z" fill="var(--gray-10)"/>
</svg>
