<svg width="24" height="24" viewBox="0 0 24 24" fill="none" xmlns="http://www.w3.org/2000/svg">
<path fill-rule="evenodd" clip-rule="evenodd" d="M8 17.0401V8.00004C8 7.56254 8.28418 7.17607 8.70166 7.04545L17.7017 4.54545C18.3457 4.34428 19 4.82548 19 5.50004V17C19 18.1045 17.8806 19 16.5 19C15.1194 19 14 18.1045 14 17C14 15.8956 15.1194 15 16.5 15C16.6711 15 16.8384 15.014 17 15.0401V8.00004L10 9.87504V19C10 20.1045 8.88062 21 7.5 21C6.11938 21 5 20.1045 5 19C5 17.8956 6.11938 17 7.5 17C7.67114 17 7.83838 17.014 8 17.0401Z" fill="var(--gray-11)"/>
</svg>
